<?xml version="1.0" encoding="UTF-8"?><svg id="_레이어_2" xmlns="http://www.w3.org/2000/svg" viewBox="0 0 196.58 138.74"><defs><style>.cls-1{stroke-width:0px;}</style></defs><g id="_레이어_1-2"><path class="cls-1" d="M24.79,3.55c.36,0,.2.3.37.62s-.06.44.1.76.32.24.48.56.04.38.2.7.19.3.36.62.31.24.47.56.23.28.39.6.19.3.35.62.11.35.27.67.1.35.26.67.21.29.37.61.22.29.38.61-.1.45.06.77.35.23.51.55.18.31.34.63-.03.42.13.74.08.36.24.69.35.23.51.55.27.27.44.59.08.36.24.69.33.24.49.56.04.38.2.71-.03.42.13.74.23.29.39.61.36.22.52.54.1.35.26.67-.02.41.14.73.51.15.67.47-.06.43.1.75.16.32.32.64.06.37.23.69.19.31.35.63.16.32.32.64.06.37.23.69.4.2.56.53-.1.46.06.78.21.3.37.62.37.22.53.54.04.38.21.7.25.28.42.6.11.35.27.67.02.39.18.72.28.26.44.58.14.34.3.66.32.24.48.56-.07.44.09.76.4.21.56.53.31.25.47.57-.05.43.12.75.35.23.51.55.02.39.19.72.28.26.44.59.19.31.36.63.12.35.28.67.11.35.27.68-.03.42.13.74.1.35.26.68.26.27.42.59.44.18.6.5-.16.48,0,.81.5.15.67.48.02.4.18.72.23.29.39.61-.04.42.13.75.24.29.4.61.22.3.38.62-.01.41.15.74.06.37.23.7.34.24.5.56.26.28.42.6.12.35.28.67.19.31.36.63-.01.41.15.74.17.32.34.65.27.27.44.6.35.27.23.61-.17.31-.5.46-.33.15-.66.29-.34.14-.67.28-.31.2-.64.35-.32.18-.66.33-.52-.27-.85-.12-.14.59-.47.74-.45-.11-.78.04-.35.11-.69.26-.35.1-.69.25-.34.13-.68.28-.22.4-.56.55-.42-.04-.76.11-.37.06-.71.21-.27.29-.61.44-.27.3-.6.45-.36.11-.69.25-.36.1-.7.25-.43.58-.78.45.11-.62-.04-.95-.28-.27-.43-.6-.35-.24-.5-.57-.05-.38-.2-.71.13-.46-.02-.79-.52-.16-.67-.49.19-.49.04-.82-.56-.15-.71-.48.16-.47,0-.8-.07-.37-.22-.7-.16-.33-.31-.66-.19-.32-.34-.65-.23-.29-.38-.63-.29-.27-.44-.6.15-.47,0-.8-.58-.14-.73-.47.28-.52.13-.86-.28-.27-.43-.61-.04-.38-.19-.71-.12-.34-.27-.68-.53-.16-.68-.49-.14-.33-.29-.66-.07-.36-.22-.69-.04-.38-.19-.71-.02-.39-.17-.72-.42-.21-.57-.55-.24-.29-.39-.62.13-.46-.02-.79-.34-.25-.49-.58.05-.42-.1-.76-.34-.25-.49-.58.04-.42-.11-.75-.13-.34-.28-.68-.35-.25-.5-.58.07-.43-.08-.76-.42-.21-.57-.54,0-.4-.15-.74.03-.42-.12-.75-.18-.32-.33-.66-.09-.61-.45-.62.07.44-.08.77-.28.27-.43.6-.31.26-.46.59-.08.36-.23.69-.37.23-.52.56.12.45-.03.78-.27.27-.42.6.03.41-.12.74-.06.37-.21.7-.4.22-.55.55-.31.26-.46.59.23.5.08.83-.23.29-.38.62-.31.26-.46.59.14.46,0,.79-.37.23-.52.56-.37.23-.52.56-.05.37-.2.71-.24.29-.39.62.26.52.12.84-.23.29-.38.62-.26.28-.41.61-.17.32-.32.65-.36.24-.51.56.25.51.1.84-.15.33-.3.67-.15.33-.29.66-.16.33-.31.66-.19.31-.34.64-.45.2-.6.53-.12.34-.27.68-.11.35-.26.68-.13.34-.28.67-.26.28-.41.61.22.5.07.83-.49.17-.64.51-.12.35-.27.68.09.44-.06.78-.47.19-.62.52.26.72-.08.86-.29-.43-.62-.58-.36-.07-.7-.21-.31-.21-.64-.35-.39-.02-.72-.16-.26-.31-.6-.45-.48.19-.81.04-.36-.08-.7-.22-.32-.18-.65-.32-.21-.44-.54-.59-.37-.07-.7-.21-.33-.17-.66-.31-.4.01-.74-.13-.3-.24-.63-.38-.31-.21-.64-.35-.34-.13-.67-.28-.38-.05-.71-.19-.29-.26-.62-.41-.31-.21-.65-.36-.66.22-.79-.12.06-.41.22-.73.46-.17.63-.49.14-.33.3-.65-.06-.43.1-.75.33-.24.49-.55.07-.37.23-.69.21-.29.37-.61.06-.37.22-.69.39-.2.55-.52.17-.31.33-.63-.16-.48,0-.8.16-.32.33-.64.46-.17.62-.49,0-.4.16-.72-.03-.42.13-.74.45-.18.61-.5.05-.38.21-.7-.02-.41.15-.73.44-.18.6-.5.14-.33.3-.66.16-.33.32-.65-.02-.41.15-.73.37-.22.53-.54.24-.28.4-.6-.07-.44.09-.76.42-.19.58-.51-.12-.47.04-.79.13-.34.29-.66.18-.31.34-.63.49-.16.65-.48.11-.35.27-.67.07-.37.24-.69.15-.33.31-.65.19-.31.36-.63.14-.33.31-.65-.07-.44.09-.76.33-.24.5-.56.08-.36.25-.68.44-.18.61-.5-.09-.45.08-.77.43-.19.59-.51.04-.39.2-.71.11-.35.27-.67.3-.25.46-.58-.09-.45.07-.77.26-.28.42-.6.34-.23.5-.56.18-.32.34-.64.11-.35.27-.67.12-.34.28-.67.1-.36.26-.68.19-.31.35-.63.08-.36.25-.69.26-.28.42-.6.26-.28.42-.6-.05-.43.11-.75.31-.24.48-.57-.12-.46.04-.78.51-.15.67-.47,0-.4.16-.73.36-.22.52-.55.17-.32.33-.65-.01-.41.15-.74.35-.23.51-.55-.02-.42.14-.74.31-.25.47-.58.14-.34.3-.66.1-.35.27-.68.09-.36.26-.69.18-.32.34-.64.23-.29.39-.62.04-.39.2-.71.21-.3.37-.63.22-.3.39-.62.24-.32.32-.68c.09-.39-.11-.66.26-.67ZM.96,63.35c.25-.26.35-.05.71-.05s.35.25.71.25.35-.18.71-.18.36.14.71.14.36-.04.71-.04.36-.16.71-.16.36-.08.71-.08.36-.04.71-.04.36.06.71.06.36.07.72.07.36-.06.72-.06.36-.06.71-.06.36.29.71.29.36-.21.71-.21.36-.02.71-.02.36.21.71.21.36.09.71.09.36-.21.71-.21.36-.12.71-.12.36.09.71.09.36-.19.71-.19.36.14.71.14.36.22.71.22.36-.08.71-.08.36-.22.71-.22.36.07.72.07.36.2.72.2.36-.38.72-.38.36.25.72.25.36,0,.72,0,.36.11.71.11.36-.03.71-.03.36,0,.71,0,.36.11.71.11.36-.26.71-.26.36.3.72.3.36-.05.72-.05.36-.23.72-.23.36.13.72.13.36-.1.72-.1.36.06.72.06.36.16.72.16.36-.13.72-.13.36.03.72.03.36-.18.72-.18.36.26.72.26.36-.26.72-.26.36-.16.72-.16.36.24.71.24.36-.21.71-.21.36.16.71.16.36-.13.72-.13.36-.03.72-.03.36.05.72.05.36.06.72.06.36.22.72.22.36.07.72.07.36-.11.72-.11.36-.31.72-.31.36.36.72.36.36-.38.72-.38.36.16.72.16.36-.07.72-.07.36.22.72.22.36-.08.72-.08.36-.06.73-.06.38-.09.64.16-.15.28-.15.64.19.36.19.72.11.36.11.73-.05.36-.05.73.03.37.03.73-.2.36-.2.73.01.36.01.73.12.36.12.73-.11.37-.11.73.25.36.25.73,0,.36,0,.73-.01.37-.01.73.06.37.06.73.03.37.03.73-.45.36-.45.73.48.37.48.73-.28.37-.28.73-.04.37-.04.74.25.39-.01.65-.28-.05-.64-.05-.36.27-.73.27-.36-.21-.73-.21-.36-.09-.73-.09-.36.16-.72.16-.36.17-.72.17-.36-.05-.72-.05-.36-.06-.73-.06-.36.16-.73.16-.36-.42-.73-.42-.36.14-.73.14-.36.23-.73.23-.37-.11-.73-.11-.36-.31-.73-.31-.36.41-.73.41-.37-.38-.73-.38-.36.45-.73.45-.36-.34-.73-.34-.36-.08-.73-.08-.37,0-.73,0-.37.04-.73.04-.37.09-.74.09-.4-.13-.67.12-.3.28-.3.64.48.35.48.71-.47.35-.47.71.15.35.15.7-.12.35-.12.7-.04.35-.04.7.42.35.42.71-.01.35-.01.71-.08.35-.08.71-.12.35-.12.71-.15.35-.15.71.29.36.29.71.1.35.1.71-.31.35-.31.71.21.36.21.71-.22.36-.22.71.21.35.21.71-.21.35-.21.71-.02.36-.02.71.21.36.21.71-.24.36-.24.72.5.58.25.83-.48-.12-.84-.12-.36-.2-.72-.2-.36.03-.72.03-.36.15-.72.15-.36.26-.72.26-.36-.15-.72-.15-.36-.18-.72-.18-.36.08-.72.08-.36-.24-.72-.24-.36.29-.72.29-.36-.13-.72-.13-.36.2-.72.2-.36.1-.72.1-.36-.28-.72-.28-.36-.17-.72-.17-.36.41-.72.41-.36-.09-.73-.09-.36-.18-.73-.18-.36.32-.73.32-.47.02-.73-.24.24-.35.24-.71-.11-.35-.11-.71.1-.35.1-.71-.45-.35-.45-.7.09-.35.09-.7.12-.35.12-.7.02-.35.02-.71.23-.35.23-.71-.44-.35-.44-.71,0-.35,0-.71,0-.35,0-.71,0-.36,0-.71.04-.35.04-.71.32-.35.32-.71-.03-.36-.03-.71-.05-.36-.05-.71-.02-.35-.02-.71.12-.35.12-.71-.4-.36-.4-.71.38-.36.38-.71-.03-.36-.03-.72.04-.36-.22-.61-.26-.31-.62-.31-.36.31-.73.31-.36-.32-.73-.32-.36.08-.73.08-.36-.07-.72-.07-.36.14-.72.14-.36-.18-.72-.18-.36.36-.73.36-.36.07-.73.07-.36-.03-.73-.03-.36-.33-.73-.33-.36.08-.73.08-.37-.02-.73-.02-.36.17-.73.17-.36-.1-.73-.1-.37-.07-.73-.07-.36.01-.73.01-.36.11-.73.11-.36-.12-.73-.12-.37-.07-.73-.07-.37.22-.73.22-.37.12-.74.12-.35-.03-.61-.29.03-.24.03-.6-.25-.36-.25-.72.19-.36.19-.73-.11-.36-.11-.73.06-.37.06-.73-.12-.36-.12-.73.26-.36.26-.73,0-.36,0-.73-.36-.37-.36-.73,0-.36,0-.73.33-.36.33-.73-.18-.37-.18-.73-.21-.37-.21-.73.32-.37.32-.73-.12-.36-.12-.73-.2-.37-.2-.73.31-.37.31-.73.05-.39-.03-.75c-.08-.38-.3-.46-.05-.72Z"/><path class="cls-1" d="M103.35,38.11c-.26.26-.25.23-.62.23s-.36-.01-.72-.01-.36-.28-.72-.28-.36.13-.72.13-.36-.03-.72-.03-.36-.17-.73-.17-.36.01-.73.01-.36.37-.73.37-.36-.27-.72-.27-.36.36-.72.36-.36-.3-.72-.3-.36.24-.72.24-.36-.21-.73-.21-.36-.09-.73-.09-.36.2-.73.2-.36.02-.73.02-.36.08-.73.08-.36-.39-.72-.39-.36.06-.72.06-.36-.07-.72-.07-.36.12-.73.12-.36.35-.73.35-.36-.45-.73-.45-.36.27-.72.27-.36-.29-.73-.29-.36.09-.73.09-.36.15-.73.15-.36.17-.73.17-.36-.1-.73-.1-.36-.24-.73-.24-.36.13-.73.13-.36.27-.73.27-.37-.41-.73-.41-.37.23-.73.23-.37-.05-.73-.05-.54-.32-.8-.06-.13.42-.13.78.38.35.38.71-.4.35-.4.7.07.35.07.7-.05.35-.05.7.05.35.05.71.18.35.18.71-.22.35-.22.71.02.37.27.62.27,0,.62,0,.35.27.71.27.35-.11.71-.11.35-.25.71-.25.35.1.71.1.35.29.71.29.35,0,.71,0,.36-.05.71-.05.35-.31.71-.31.35.36.71.36.35-.06.71-.06.35-.41.71-.41.35.06.71.06.36.29.71.29.36-.06.71-.06.36.13.71.13.35-.25.71-.25.36.09.71.09.35.16.7.16.35-.22.71-.22.35.11.71.11.36-.06.71-.06.36-.17.71-.17.35.31.71.31.35-.17.71-.17.36.26.71.26.36-.48.71-.48.36.38.71.38.36-.03.71-.03.36.04.71.04.36.08.71.08.36-.19.71-.19.36.1.71.1.36-.08.72-.08.36-.13.72-.13.36-.09.72-.09.52-.15.77.1-.09.41-.09.78.21.36.21.73-.39.36-.39.73.38.37.38.73-.17.36-.17.73-.14.36-.14.73-.07.36-.07.73.43.37.43.73-.3.36-.3.73-.05.36-.05.73-.12.37-.12.73.45.37.45.73-.11.37-.11.73-.24.36-.24.73.17.37.17.73-.06.37-.06.73.03.37.03.74.24.45-.02.72-.34-.07-.7-.07-.36.03-.72.03-.36-.05-.72-.05-.36.2-.72.2-.36-.21-.72-.21-.36.37-.72.37-.36-.03-.72-.03-.36-.3-.72-.3-.36.32-.72.32-.36-.04-.72-.04-.36-.04-.72-.04-.36-.1-.72-.1-.36-.31-.72-.31-.36.37-.72.37-.36-.05-.72-.05-.36.1-.72.1-.36-.01-.73-.01-.36-.38-.73-.38-.36-.02-.72-.02-.36.25-.72.25-.36-.07-.72-.07-.36-.12-.72-.12-.36.37-.72.37-.36-.14-.72-.14-.36-.09-.72-.09-.36.28-.72.28-.36-.37-.73-.37-.36.34-.73.34-.36-.39-.73-.39-.36.32-.72.32-.36.05-.72.05-.36-.19-.72-.19-.36-.09-.72-.09-.36.27-.73.27-.36-.08-.73-.08-.36-.22-.73-.22-.36.18-.73.18-.36.11-.73.11-.36-.2-.72-.2-.36.1-.72.1-.36-.22-.72-.22-.36.29-.73.29-.36-.27-.73-.27-.36.23-.73.23-.36-.17-.72-.17-.36-.11-.73-.11-.36.4-.73.4-.36-.37-.73-.37-.36.04-.73.04-.36.04-.73.04-.36.12-.73.12-.36-.24-.73-.24-.36.21-.73.21-.37.03-.73.03-.37.19-.73.19-.37-.27-.73-.27-.53.34-.79.08-.14-.42-.14-.78.17-.36.17-.72.15-.36.15-.72.07-.36.07-.72-.38-.36-.38-.73.01-.36.01-.72.38-.36.38-.72-.07-.36-.07-.72-.11-.36-.11-.72-.05-.36-.05-.72-.2-.36-.2-.72.27-.36.27-.72-.22-.36-.22-.72.25-.36.25-.73-.04-.36-.04-.73.19-.36.19-.73-.46-.36-.46-.72.04-.36.04-.72.17-.36.17-.72.03-.36.03-.72-.06-.36-.06-.73.04-.36.04-.73-.19-.36-.19-.73.17-.36.17-.73-.09-.36-.09-.73,0-.36,0-.72.16-.36.16-.72-.3-.36-.3-.72.42-.36.42-.73-.27-.36-.27-.73.05-.36.05-.73.18-.36.18-.72-.26-.36-.26-.73.1-.36.1-.73.04-.36.04-.73-.18-.36-.18-.73.09-.36.09-.73.1-.36.1-.73.22-.36.22-.73-.04-.36-.04-.73-.21-.37-.21-.73.08-.37.08-.73.1-.37.1-.73-.33-.38-.07-.64.27-.06.63-.06.36.2.72.2.36-.37.72-.37.36.15.72.15.36,0,.72,0,.36.1.73.1.36.13.73.13.36-.26.73-.26.36.12.72.12.36-.03.72-.03.36-.13.72-.13.36-.08.72-.08.36.36.73.36.36-.05.73-.05.36-.38.73-.38.36.11.73.11.36.36.73.36.36-.44.72-.44.36.16.72.16.36-.1.72-.1.36.05.73.05.36.05.73.05.36.18.73.18.36-.1.72-.1.36-.15.73-.15.36-.03.73-.03.36-.08.73-.08.36.32.73.32.36-.17.73-.17.36.2.73.2.36-.24.73-.24.36.11.73.11.37-.11.73-.11.37-.1.73-.1.37.12.73.12.37.26.63,0,.08-.27.08-.64,0-.37,0-.74.07-.37.07-.74-.05-.37-.05-.74.17-.37.17-.74-.2-.37-.2-.74.27-.37.27-.74.02-.48-.23-.74-.36.02-.72.02-.36-.12-.72-.12-.36.21-.72.21-.36-.12-.72-.12-.36-.22-.72-.22-.36.22-.72.22-.36.17-.72.17-.36-.33-.72-.33-.36.36-.72.36-.36-.26-.72-.26-.36-.02-.72-.02-.36.14-.72.14-.36-.23-.72-.23-.36.3-.72.3-.36-.23-.72-.23-.36,0-.72,0-.36.04-.72.04-.36.13-.72.13-.36.01-.72.01-.36-.22-.72-.22-.36,0-.72,0-.36.02-.72.02-.36.32-.72.32-.36-.29-.72-.29-.36-.02-.72-.02-.36-.14-.73-.14-.36.06-.72.06-.36.37-.72.37-.36-.22-.73-.22-.36.24-.72.24-.36-.3-.72-.3-.36-.1-.72-.1-.36-.01-.73-.01-.36.27-.73.27-.36.11-.73.11-.48.09-.74-.17,0-.37,0-.73.21-.36.21-.73-.13-.36-.13-.73.07-.37.07-.73-.11-.36-.11-.73-.26-.36-.26-.73.06-.36.06-.73.08-.37.08-.73.12-.36.12-.73.15-.36.15-.73-.05-.37-.05-.73-.21-.37-.21-.73.22-.37.22-.73-.08-.36-.08-.73.04-.37.04-.73.13-.37.13-.73-.02-.37-.02-.74-.38-.4-.13-.66.28-.3.64-.3.36.16.72.16.36-.15.72-.15.36.18.72.18.36.27.72.27.36-.43.72-.43.36.44.72.44.36-.12.72-.12.36-.19.71-.19.36.12.72.12.36-.23.72-.23.36.28.72.28.36-.28.72-.28.36-.03.72-.03.36.28.72.28.36-.05.72-.05.36.15.72.15.36.02.72.02.36-.27.72-.27.36-.16.72-.16.36.34.72.34.36-.24.72-.24.36-.03.72-.03.36.04.72.04.36-.02.72-.02.36.29.72.29.36-.32.72-.32.36.05.72.05.36.24.72.24.36-.02.72-.02.36-.31.72-.31.36.45.72.45.36-.03.72-.03.36-.14.72-.14.36-.16.72-.16.36.13.72.13.36.15.72.15.36-.14.72-.14.36.06.72.06.36.03.72.03.36-.28.72-.28.36.34.72.34.36-.39.72-.39.36.1.72.1.36.14.72.14.36.1.72.1.36-.34.72-.34.36.45.72.45.36-.42.72-.42.36.39.72.39.36-.31.72-.31.36.22.72.22.36,0,.72,0,.36-.11.73-.11.36-.19.73-.19.36.35.73.35.53-.48.79-.23.1.42.1.78,0,.36,0,.71-.22.36-.22.71.03.36.03.72.28.36.28.72-.04.36-.04.71-.2.36-.2.71-.03.36-.03.71-.02.36-.02.71.21.36.21.71-.3.36-.3.71.25.36.25.71.09.36.09.71-.38.36-.38.72.15.36.15.72.02.36.02.72-.07.36-.07.71.03.36.03.71.17.36.17.71-.06.36-.06.71.1.36.1.72-.34.36-.34.72.07.36.07.72.34.36.34.72-.2.36-.2.72.16.36.16.71-.34.36-.34.71.3.36.3.71-.29.36-.29.72.3.36.3.72-.42.36-.42.72.24.36.24.71.08.36.08.72.1.36.1.72-.24.36-.24.72.3.36.3.72-.13.36-.13.72.01.36.01.72-.05.36-.05.72.11.36.11.72-.07.36-.07.72-.03.36-.03.72-.36.4-.31.76c.05.33.39.33.14.58ZM117.87.33c.26-.26.26-.23.62-.23s.37.01.73.01.37.28.73.28.37-.13.74-.13.37.03.74.03.37.17.74.17.37-.01.73-.01.37-.37.74-.37.37.27.74.27.37-.36.74-.36.37.3.74.3.37-.24.74-.24.37.21.74.21.37.09.74.09.37-.2.74-.2.37-.02.74-.02.37-.08.74-.08.37.39.74.39.36-.36.63-.1-.12.24-.12.6.12.36.12.71.35.36.35.71-.45.36-.45.71.27.36.27.71-.29.36-.29.72.09.36.09.72.15.36.15.72.17.36.17.72-.1.36-.1.72-.24.36-.24.72.13.36.13.72.27.36.27.72-.41.36-.41.72.23.36.23.72-.05.36-.05.72-.09.36-.09.72-.1.36-.1.72.38.36.38.72-.4.36-.4.72.07.36.07.72-.05.36-.05.72.05.36.05.72.18.36.18.72-.22.36-.22.72.31.36.31.72-.04.36-.04.72-.27.36-.27.72.11.36.11.72.25.36.25.72-.1.36-.1.72-.29.36-.29.72,0,.36,0,.72.05.36.05.72.31.36.31.72-.36.36-.36.72.06.36.06.72.41.36.41.72-.06.36-.06.72-.29.36-.29.72.06.36.06.72-.13.36-.13.72.25.36.25.72-.09.36-.09.72-.16.36-.16.72.22.36.22.72-.11.36-.11.72.06.36.06.72.17.36.17.72-.31.36-.31.72.17.36.17.72-.26.36-.26.72.48.36.48.72-.38.36-.38.72.03.36.03.72-.04.36-.04.72-.08.36-.08.72.19.36.19.72-.1.36-.1.72.08.36.08.72.13.36.13.72.09.36.09.72-.08.36-.08.72-.11.36-.11.72.21.36.21.71-.39.36-.39.71.38.36.38.71-.17.36-.17.71-.14.36-.14.72-.07.36-.07.72.43.36.43.72-.3.36-.3.72-.05.36-.05.72-.12.36-.12.72.45.36.45.72-.11.36-.11.72-.24.36-.24.72.17.36.17.72-.06.36-.06.71.03.36.03.71-.03.36-.03.71-.06.36-.06.71.03.36.03.72-.05.36-.05.72.2.36.2.72-.21.36-.21.72.37.36.37.72-.03.36-.03.72-.3.36-.3.72.32.36.32.72-.04.36-.04.72-.04.36-.04.72-.1.36-.1.72-.31.36-.31.72.37.36.37.72-.05.36-.05.72.1.36.1.72-.01.36-.01.72-.38.36-.38.72-.02.36-.02.72.25.36.25.72-.07.36-.07.72-.12.36-.12.72.37.36.37.72-.14.36-.14.72-.09.36-.09.72.28.36.28.72-.37.36-.37.72.34.36.34.72-.39.36-.39.72.32.36.32.72.05.36.05.72-.19.36-.19.72-.09.36-.09.72.27.36.27.72-.08.36-.08.72-.22.36-.22.72.18.36.18.72.11.36.11.72-.2.36-.2.72.1.36.1.72-.22.36-.22.72.29.36.29.72-.27.36-.27.72.23.36.23.72-.17.36-.17.73-.11.36-.11.73.4.36.4.73-.07.36-.33.62-.26,0-.62,0-.37.04-.73.04-.37.12-.73.12-.37-.24-.74-.24-.37.21-.74.21-.37.03-.74.03-.37.19-.73.19-.37-.27-.74-.27-.37.1-.74.1-.37.12-.74.12-.37-.17-.74-.17-.37-.15-.74-.15-.37-.07-.74-.07-.37.38-.74.38-.37-.01-.74-.01-.37-.38-.74-.38-.37.07-.74.07-.37.11-.74.11-.49.3-.75.04-.21-.37-.21-.73.27-.36.27-.71-.22-.36-.22-.71.25-.36.25-.71-.04-.36-.04-.71.19-.36.19-.72-.46-.36-.46-.72.04-.36.04-.72.17-.36.17-.72.03-.36.03-.72-.06-.36-.06-.72.04-.36.04-.72-.19-.36-.19-.72.17-.36.17-.72-.09-.36-.09-.72,0-.36,0-.72.16-.36.16-.72-.3-.36-.3-.72.42-.36.42-.72-.27-.36-.27-.72.05-.36.05-.72.18-.36.18-.72-.26-.36-.26-.72.1-.36.1-.72.04-.36.04-.72-.18-.36-.18-.72.09-.36.09-.72.1-.36.1-.72.22-.36.22-.72-.04-.36-.04-.72-.21-.36-.21-.72.08-.36.08-.72.1-.36.1-.72-.04-.36-.04-.72-.1-.36-.1-.72.2-.36.2-.72-.37-.36-.37-.72.15-.36.15-.72,0-.36,0-.72.1-.36.1-.72.13-.36.13-.72-.26-.36-.26-.72.12-.36.12-.72-.03-.36-.03-.72-.13-.36-.13-.72-.08-.36-.08-.72.36-.36.36-.72-.05-.36-.05-.72-.38-.36-.38-.72.11-.36.11-.72.36-.36.36-.72-.44-.36-.44-.72.16-.36.16-.72-.1-.36-.1-.72.05-.36.05-.72.05-.36.05-.72.18-.36.18-.72-.1-.36-.1-.72-.15-.36-.15-.72-.03-.36-.03-.72-.08-.36-.08-.72.32-.36.32-.72-.17-.36-.17-.72.2-.36.2-.72-.24-.36-.24-.71.11-.36.11-.71-.11-.36-.11-.71-.1-.36-.1-.71.12-.36.12-.72-.05-.36-.05-.72.12-.36.12-.72,0-.36,0-.72.07-.36.07-.72-.05-.36-.05-.72.17-.36.17-.72-.2-.36-.2-.72.27-.36.27-.72-.23-.36-.23-.72-.02-.36-.02-.71.12-.36.12-.71-.21-.36-.21-.71.12-.36.12-.71.22-.36.22-.72-.22-.36-.22-.72-.17-.36-.17-.72.33-.36.33-.72-.36-.36-.36-.72.26-.36.26-.72.02-.36.02-.72-.14-.36-.14-.72.23-.36.23-.72-.3-.36-.3-.72.23-.36.23-.72,0-.36,0-.72-.04-.36-.04-.72-.13-.36-.13-.72-.01-.36-.01-.72.22-.36.22-.72,0-.36,0-.72-.02-.36-.02-.72-.32-.36-.32-.72.29-.36.29-.72.02-.36.02-.72.14-.36.14-.72-.06-.36-.06-.72-.37-.36-.37-.72.22-.36.22-.72-.24-.36-.24-.72.3-.36.3-.72.1-.36.1-.72.01-.36.01-.72-.27-.36-.27-.72-.11-.36-.11-.72.16-.36.16-.72,0-.36,0-.72.21-.36.21-.72-.13-.36-.13-.72.07-.36.07-.72-.11-.36-.11-.72-.26-.36-.26-.72.06-.36.06-.72.08-.36.08-.72.12-.36.12-.72.15-.36.15-.72-.05-.36-.05-.72-.21-.36-.21-.73.22-.36.22-.73-.03-.38-.08-.74c-.05-.33-.21-.36.04-.61Z"/><path class="cls-1" d="M171.24,88.2c.24,0,.48.38.72.38s.5-.35.74-.34.49-.06.73-.04.47.2.71.23.49-.02.73.02.44.32.68.36.46.13.7.17.47.09.7.14.47.08.71.14.5-.01.73.06.38.38.61.45.56-.17.79-.09.35.43.58.52.55-.08.77.02.45.18.67.28.28.52.5.63.63-.17.84-.06.43.22.64.34.21.6.41.72.46.16.66.29.55.05.75.18.29.43.48.58.3.39.49.54.63-.02.82.13.17.55.35.71.26.43.44.59.57.1.74.26.32.36.49.53.16.51.32.69.52.18.68.36.44.27.59.45.32.37.46.56-.05.64.09.84.58.18.72.38-.07.62.06.83.32.36.44.57.34.36.46.57.12.48.24.69.37.35.47.57.03.52.13.73.51.3.6.52.18.45.27.67.18.45.26.68.12.47.2.7.17.45.24.68.04.49.1.73.23.44.29.68-.19.53-.15.77.2.45.25.69.03.48.07.72-.06.49-.04.73.39.44.41.69-.18.5-.16.74.17.48.17.72-.06.48-.06.73-.15.48-.16.72-.1.47-.11.71.15.49.13.73.22.51.19.75-.38.44-.41.67.06.49.02.73.09.51.05.75-.08.48-.14.71-.5.37-.56.6-.08.47-.15.7-.23.43-.31.65.1.54.02.77-.2.44-.28.66-.15.46-.24.68-.31.39-.41.61-.19.44-.29.66-.09.5-.2.71-.13.48-.25.69-.22.44-.34.64-.24.43-.37.63-.41.31-.55.51-.18.47-.32.66-.62.13-.76.32-.18.46-.33.65-.34.34-.5.52-.35.32-.52.5-.14.53-.31.7-.35.33-.53.49-.5.16-.68.32-.41.26-.59.41-.24.45-.43.6-.46.18-.65.33-.4.26-.59.4-.32.38-.51.51-.42.23-.62.36-.43.2-.64.33-.28.48-.49.59-.53.03-.74.14-.29.48-.51.59-.55-.05-.77.05-.43.21-.65.3-.32.48-.55.57-.54-.07-.77,0-.51-.01-.73.06-.43.21-.66.27-.44.21-.67.27-.4.39-.63.44-.55-.26-.78-.21-.46.11-.7.15-.41.49-.65.52-.49-.04-.73-.01-.51-.28-.75-.26-.46.25-.7.27-.49-.2-.73-.19-.47-.02-.72-.02-.48.12-.72.11-.47-.13-.71-.15-.5.26-.74.24-.48-.1-.71-.13-.47-.1-.71-.13-.46-.16-.7-.2-.47-.09-.7-.14-.51.09-.74.03-.49-.03-.72-.09-.39-.41-.62-.48-.44-.18-.67-.25-.47-.1-.69-.18-.48-.09-.7-.17-.45-.17-.67-.26-.46-.14-.68-.24-.42-.23-.64-.33-.5-.09-.71-.2-.28-.5-.48-.61-.6.08-.81-.04-.21-.57-.41-.7-.48-.13-.68-.27-.31-.38-.51-.52-.49-.14-.68-.29-.41-.25-.6-.4-.23-.48-.41-.63-.59-.06-.77-.22-.35-.33-.52-.5-.11-.57-.28-.74-.34-.33-.51-.5-.59-.12-.75-.3-.28-.4-.43-.59-.01-.6-.16-.79-.49-.22-.64-.42-.19-.45-.33-.65-.43-.29-.56-.49-.21-.44-.33-.64-.28-.4-.4-.61.01-.55-.1-.77-.23-.42-.33-.63-.51-.29-.62-.5.01-.53-.08-.75-.14-.46-.23-.68-.43-.35-.51-.58.06-.53-.02-.76-.22-.43-.29-.66-.21-.44-.27-.67-.15-.46-.2-.69-.1-.47-.15-.71.06-.5.02-.74-.07-.47-.1-.71.12-.49.09-.73-.26-.45-.28-.69.13-.49.12-.73-.3-.47-.31-.71.07-.48.07-.72-.1-.49-.1-.73.07-.48.08-.72.06-.48.08-.72.24-.46.27-.7-.33-.53-.29-.77.25-.45.29-.69.19-.46.23-.69-.19-.54-.14-.77.52-.37.58-.6.17-.45.24-.68-.16-.55-.08-.78.24-.43.32-.65.03-.5.12-.73.05-.5.15-.73.57-.28.67-.5.04-.51.15-.73.43-.32.54-.53.03-.53.15-.74.21-.43.34-.64.17-.47.3-.67.39-.32.52-.52.25-.41.39-.61.19-.46.34-.65.33-.36.48-.54.22-.45.38-.63.28-.4.44-.58.53-.16.7-.34.33-.35.5-.52.28-.4.46-.57.27-.43.45-.58.57-.07.76-.22.3-.39.49-.54.51-.11.71-.25.21-.53.41-.66.57-.01.77-.14.16-.65.37-.77.42-.25.63-.37.43-.24.64-.35.46-.17.68-.28.58.09.8,0,.33-.45.55-.54.52,0,.75-.08.48-.09.7-.17.35-.48.58-.55.5,0,.74-.07.49-.01.73-.07.5.03.73-.02.39-.48.62-.53.47-.1.71-.14.49-.03.72-.06.51.23.75.2.46-.22.7-.24.48-.01.72-.02.47-.25.71-.26.49.03.73.03ZM147.03,67.44c.26-.26.46.34.83.34s.37-.37.73-.37.37-.1.73-.1.37.15.74.15.37-.08.74-.08.37.25.74.25.37.04.73.04.37,0,.74,0,.37-.03.74-.03.37-.14.74-.14.37.25.74.25.37-.34.74-.34.37.29.74.29.37-.27.74-.27.37-.02.74-.02.37.35.74.35.37-.43.74-.43.37,0,.74,0,.63.61.89.36-.04-.51-.04-.87-.26-.35-.26-.71.19-.35.19-.71.14-.35.14-.71-.41-.35-.41-.7.31-.35.31-.7.15-.35.15-.71-.32-.35-.32-.71.03-.36.03-.71.24-.35.24-.71-.27-.35-.27-.71-.16-.35-.16-.71-.01-.36-.01-.71.43-.35.43-.71-.37-.35-.37-.71.41-.36.41-.71-.08-.36-.08-.71-.11-.36-.11-.71.12-.35.12-.71-.16-.36-.16-.71.2-.36.2-.71-.34-.36-.34-.72-.21-.56.05-.82.46-.05.82-.05.35.04.71.04.35-.03.71-.03.36.1.71.1.36-.12.71-.12.36.3.72.3.36-.12.71-.12.36.05.71.05.36.13.71.13.36-.34.72-.34.36.21.72.21.36-.14.72-.14.36.07.72.07.36.15.72.15.36.08.72.08.36-.18.71-.18.36-.26.72-.26.36.33.72.33.36-.13.72-.13.6-.38.86-.13.08.5.08.85-.4.35-.4.71.04.35.04.71-.1.35-.1.71.27.35.27.7-.03.35-.03.7.03.35.03.71-.12.35-.12.71.02.36.02.71.15.35.15.71.11.35.11.71.03.35.03.71.02.36.02.71-.17.35-.17.71.13.35.13.71-.41.36-.41.71.15.36.15.71-.05.36-.05.71-.05.35-.05.71.26.36.26.71-.02.36-.02.71-.23.36-.23.72-.26.64,0,.89.53-.12.89-.12.36.15.73.15.36.03.73.03.36-.12.73-.12.36.04.73.04.36.06.73.06.36-.27.73-.27.36.23.73.23.36-.3.72-.3.36.28.72.28.36-.02.72-.02.36-.32.73-.32.36.26.73.26.36.18.73.18.36-.07.73-.07.36-.08.73-.08.36-.28.73-.28.36.37.73.37.36-.02.73-.02.37-.41.73-.41.36.11.73.11.36.33.73.33.36-.22.73-.22.37.22.73.22.37.03.73.03.37-.12.73-.12.32-.21.58.05.22.2.22.57-.06.36-.06.72-.04.36-.04.73-.09.36-.09.73-.01.37-.01.73.19.36.19.73.09.36.09.73-.3.36-.3.73-.04.37-.04.73.05.36.05.73.08.36.08.73.01.37.01.73.05.37.05.73-.03.37-.03.73.14.36.14.73-.31.37-.31.73.37.37.37.73-.38.37-.38.74.42.44.17.7-.32-.15-.68-.15-.35.18-.71.18-.35.05-.71.05-.36-.22-.71-.22-.36.34-.71.34-.36,0-.71,0-.36-.33-.71-.33-.36.02-.71.02-.36.35-.71.35-.36-.05-.72-.05-.36-.37-.72-.37-.36.26-.71.26-.36-.11-.71-.11-.36.2-.71.2-.36-.06-.71-.06-.36.03-.71.03-.36-.28-.71-.28-.36,0-.71,0-.36.34-.71.34-.36-.23-.71-.23-.36-.05-.71-.05-.36.27-.71.27-.36-.23-.71-.23-.36.08-.71.08-.36.08-.71.08-.36.03-.72.03-.36,0-.72,0-.36-.16-.72-.16-.36-.01-.72-.01-.36-.18-.72-.18-.36.21-.71.21-.36-.17-.71-.17-.36.28-.71.28-.36-.08-.71-.08-.36.11-.71.11-.36-.05-.72-.05-.36-.03-.72-.03-.36-.2-.72-.2-.36.39-.72.39-.36-.18-.72-.18-.36-.1-.72-.1-.36.3-.72.3-.36-.42-.72-.42-.36-.05-.72-.05-.36.31-.72.31-.36-.1-.72-.1-.36.14-.72.14-.36.14-.72.14-.36-.41-.71-.41-.36.18-.71.18-.36-.24-.71-.24-.36.22-.72.22-.36.03-.72.03-.36.1-.72.1-.36-.15-.72-.15-.36.03-.72.03-.36.12-.72.12-.36-.04-.72-.04-.36.11-.72.11-.36.06-.72.06-.36-.28-.72-.28-.36.01-.72.01-.36.1-.72.1-.36.13-.72.13-.36-.32-.72-.32-.36.11-.73.11-.32.1-.57-.16-.24-.21-.24-.57.31-.36.31-.72-.46-.36-.46-.73,0-.36,0-.73,0-.37,0-.73.06-.36.06-.73.34-.36.34-.73-.28-.36-.28-.73.21-.37.21-.73.08-.36.08-.73-.34-.36-.34-.73.15-.37.15-.73.12-.37.12-.73.15-.37.15-.73-.39-.36-.39-.73,0-.37,0-.73.05-.37.05-.73.39-.43.29-.79c-.12-.43-.55-.52-.29-.78ZM149.05,6.77c.25-.26.45.33.81.33s.36-.37.71-.37.36-.1.71-.1.36.15.71.15.36-.08.71-.08.36.25.71.25.36.04.71.04.36,0,.71,0,.36-.03.71-.03.36-.14.71-.14.36.25.71.25.36-.34.71-.34.36.29.71.29.36-.27.71-.27.36-.02.71-.02.36.35.71.35.36-.43.71-.43.36,0,.71,0,.36.42.71.42.36-.1.71-.1.36-.26.72-.26.36.19.72.19.36.14.71.14.36-.41.71-.41.36.31.71.31.36.15.71.15.36-.32.71-.32.36.03.71.03.36.24.71.24.36-.27.71-.27.36-.16.72-.16.36-.01.72-.01.36.43.72.43.36-.37.72-.37.36.41.71.41.36-.08.71-.08.36-.11.72-.11.36.12.72.12.36-.16.72-.16.36.2.72.2.36-.34.72-.34.36,0,.72,0,.36,0,.71,0,.36.04.71.04.36-.03.71-.03.36.1.72.1.36-.12.72-.12.36.3.72.3.36-.12.72-.12.36.05.72.05.36.13.72.13.36-.34.72-.34.36.21.72.21.36-.14.72-.14.36.07.72.07.36.15.72.15.36.08.72.08.36-.18.72-.18.36-.26.72-.26.36.33.72.33.48-.38.73-.13.19.37.19.73.02.36.02.72-.4.36-.4.72.04.36.04.72-.1.36-.1.71.27.35.27.71-.03.35-.03.71.03.36.03.71-.12.36-.12.71.02.36.02.71.15.36.15.71.11.36.11.71.03.36.03.72.02.36.02.72-.17.36-.17.72.13.36.13.72-.41.36-.41.71.15.36.15.71-.05.36-.05.71-.05.36-.05.71.26.36.26.71-.02.36-.02.71-.23.36-.23.71-.08.36-.08.71.19.36.19.71-.15.36-.15.71-.03.36-.03.71.12.36.12.71-.04.36-.04.71-.06.36-.06.72.27.36.27.72-.23.36-.23.72.3.36.3.72-.28.36-.28.72.02.36.02.72.32.36.32.71-.26.36-.26.71-.18.36-.18.71.07.36.07.72.08.36.08.72.28.36.28.72-.37.36-.37.72.02.36.02.72.41.36.41.72-.11.36-.11.72-.33.36-.33.72.22.36.22.72-.22.36-.22.72-.03.36-.03.72.12.36.12.72-.12.36-.12.72.29.36.29.72-.06.36-.06.71-.04.36-.04.71-.09.36-.09.71-.01.36-.01.72.19.36.19.72.09.36.09.72-.3.36-.3.72-.04.36-.04.72.05.36.05.72.08.36.08.72.01.36.01.72.05.36.05.72-.03.36-.03.72.14.36.14.72-.31.36-.31.72.37.36.37.72-.38.36-.38.72.15.36.15.73.18.34-.08.59-.23.12-.6.12-.37.05-.73.05-.37-.22-.73-.22-.37.34-.74.34-.37,0-.74,0-.37-.33-.74-.33-.37.02-.73.02-.37.35-.74.35-.37-.05-.74-.05-.37-.37-.74-.37-.37.26-.74.26-.37-.11-.74-.11-.37.2-.74.2-.37-.06-.74-.06-.37.03-.74.03-.37-.28-.74-.28-.37,0-.74,0-.37.34-.74.34-.43.05-.7-.21.07-.31.07-.67-.27-.36-.27-.72.23-.36.23-.72-.08-.36-.08-.72-.08-.36-.08-.72-.03-.36-.03-.72,0-.36,0-.72.16-.36.16-.72.01-.36.01-.72.18-.36.18-.72-.21-.36-.21-.73.17-.36.17-.73-.28-.36-.28-.72.08-.36.08-.72-.11-.36-.11-.72.05-.36.05-.72.03-.36.03-.72.2-.36.2-.72-.39-.36-.39-.72.18-.36.18-.72.1-.36.1-.73-.3-.36-.3-.73.42-.36.42-.73.05-.36.05-.72-.31-.36-.31-.72.1-.36.1-.72-.14-.36-.14-.72-.14-.36-.14-.73.41-.36.41-.73-.18-.36-.18-.73.24-.36.24-.73-.22-.36-.22-.73-.03-.36-.03-.72-.1-.36-.1-.72.15-.36.15-.72-.03-.36-.03-.73-.12-.36-.12-.73.04-.36.04-.73-.11-.36-.11-.72-.06-.36-.06-.73.28-.36.28-.73-.01-.36-.01-.73-.1-.36-.1-.73-.13-.36-.13-.73.32-.36.32-.73-.11-.36-.11-.73.22-.36.22-.73-.31-.37-.31-.73.31-.37.31-.73-.46-.37-.46-.73.32-.3.07-.56-.19.07-.55.07-.36-.06-.72-.06-.36-.34-.72-.34-.36.28-.72.28-.36-.21-.72-.21-.36-.08-.72-.08-.36.34-.72.34-.36-.15-.72-.15-.36-.12-.72-.12-.36-.15-.72-.15-.36.39-.72.39-.36,0-.72,0-.36-.05-.72-.05-.36-.3-.72-.3-.36.17-.72.17-.36-.03-.72-.03-.36.23-.72.23-.36-.32-.72-.32-.36.27-.72.27-.36-.01-.72-.01-.36-.28-.72-.28-.36.13-.72.13-.36-.03-.72-.03-.36-.17-.72-.17-.36.01-.72.01-.36.37-.72.37-.36-.27-.72-.27-.36.36-.72.36-.36-.3-.72-.3-.36.24-.72.24-.36-.21-.73-.21-.36-.09-.72-.09-.36.2-.72.2-.36.02-.73.02-.36.08-.72.08-.36-.39-.72-.39-.36.06-.72.06-.36-.07-.73-.07-.36.12-.73.12-.37.35-.73.35-.32-.13-.58-.39-.2-.21-.2-.57.29-.36.29-.72-.09-.36-.09-.73-.15-.36-.15-.73-.17-.37-.17-.73.1-.36.1-.73.24-.36.24-.73-.13-.36-.13-.73-.27-.37-.27-.73.41-.36.41-.73-.23-.36-.23-.73.05-.37.05-.73.09-.37.09-.73.1-.37.1-.73-.38-.36-.38-.73.4-.37.4-.73-.07-.37-.07-.73.14-.43.05-.79c-.12-.43-.54-.51-.28-.78ZM171.24,124.45c.24,0,.5.37.73.35s.45-.41.68-.44.45-.16.68-.21.5.05.73,0,.43-.2.66-.28.54.07.76-.02.47-.15.68-.26.43-.23.64-.35.4-.27.6-.41.31-.39.5-.53.54-.11.72-.26.13-.57.3-.74.54-.15.7-.33.1-.54.25-.73.27-.39.4-.59.56-.22.68-.43-.15-.62-.04-.84.19-.42.28-.65.57-.3.64-.53.05-.5.11-.73-.14-.52-.09-.76.28-.44.31-.67.19-.47.21-.71-.39-.49-.39-.73.31-.49.29-.72.11-.5.08-.74-.38-.43-.43-.66-.07-.47-.13-.7.1-.54.02-.76-.41-.36-.5-.58-.33-.36-.44-.58-.22-.41-.34-.61.12-.64-.01-.84-.58-.18-.72-.37.02-.63-.14-.81-.39-.31-.56-.48-.42-.26-.6-.42-.29-.41-.48-.56-.48-.16-.68-.29-.3-.43-.51-.55-.58.07-.8-.04-.42-.21-.64-.3-.44-.17-.66-.24-.44-.18-.67-.24-.46-.08-.7-.13-.45-.18-.69-.21-.48.07-.72.05-.47-.33-.71-.33-.48.12-.72.14-.49,0-.72.02-.5-.05-.74,0-.39.43-.62.5-.52-.07-.75,0-.4.29-.62.39-.47.12-.68.23-.5.09-.71.21-.46.19-.66.32-.3.42-.49.57-.2.5-.38.66-.57.08-.74.25-.24.44-.4.62-.16.48-.31.67-.26.38-.4.58-.6.19-.72.4-.2.45-.31.66-.3.4-.39.62.07.55,0,.77-.18.45-.24.68-.08.47-.13.71-.21.45-.24.69-.04.48-.05.72.12.48.12.72.12.47.14.71.07.46.1.7.09.46.14.69-.07.5,0,.73.25.42.33.64-.23.6-.13.82.33.39.43.6.18.45.3.66.21.45.34.65.49.24.63.43.28.38.44.56.16.51.33.68.3.4.48.56.49.17.68.32.3.41.5.54.4.3.6.42.49.13.7.24.42.25.64.34.44.23.66.31.54-.11.77-.05.42.34.65.39.52-.21.76-.18.45.33.69.35.49-.26.73-.26Z"/></g></svg>